<svg height="511pt" viewBox="-51 0 511 511.99889" width="511pt" xmlns="http://www.w3.org/2000/svg"><path d="m316.234375 170.066406c0 35.074219-22.359375 41.730469-30.890625 43.011719h-160.085938c-8.535156-1.28125-30.890624-7.9375-30.890624-43.011719 0-16.296875 3.839843-22.78125 8.703124-24.488281 6.058594-2.21875 13.738282 3.070313 16.980469 5.714844h170.496094c3.855469-3.449219 8.683594-5.625 13.824219-6.226563 1.074218-.003906 2.140625.167969 3.15625.511719 4.867187 1.707031 8.707031 8.191406 8.707031 24.488281zm0 0" fill="#e8edfc"/><path d="m401.566406 406.269531c.011719 21.257813-8.425781 41.644531-23.457031 56.675781-15.027344 15.027344-35.417969 23.464844-56.671875 23.453126l-30.804688 17.066406h-170.667968l-30.804688-17.066406c-42.910156-.011719-78.203125-33.816407-80.054687-76.691407-1.851563-42.871093 30.390625-79.597656 73.144531-83.308593l68.605469-5.972657h108.886719l68.609374 5.972657c41.417969 3.621093 73.203126 38.292968 73.214844 79.871093zm0 0" fill="#cad9fc"/><path d="m375.964844 406.269531c.015625 21.257813-8.425782 41.644531-23.453125 56.675781-15.03125 15.027344-35.417969 23.464844-56.671875 23.453126l-30.808594 17.066406h-145.066406l-30.804688-17.066406c-42.910156-.011719-78.203125-33.816407-80.054687-76.691407-1.851563-42.871093 30.390625-79.597656 73.144531-83.308593l68.605469-5.972657h83.285156l68.609375 5.972657c41.417969 3.621093 73.203125 38.292968 73.214844 79.871093zm0 0" fill="#e8edfc"/><path d="m350.367188 443.730469v34.136719l-2.945313 4.21875c-8.363281 2.863281-17.144531 4.320312-25.984375 4.3125l-30.804688 17.066406h-170.667968l-30.804688-17.066406c-8.839844.007812-17.617187-1.449219-25.984375-4.3125l-2.941406-4.21875v-34.136719c0-9.425781 7.640625-17.066407 17.066406-17.066407h256c9.425781 0 17.066407 7.640626 17.066407 17.066407zm0 0" fill="#cad9fc"/><path d="m333.300781 409.597656v68.269532c.007813 6.789062-2.6875 13.308593-7.488281 18.109374-4.804688 4.804688-11.320312 7.5-18.113281 7.488282h-204.800781c-6.792969.011718-13.308594-2.683594-18.109376-7.488282-4.804687-4.800781-7.5-11.320312-7.488281-18.109374v-68.269532zm0 0" fill="#e8edfc"/><path d="m249.074219 273.917969c1.6875 15.875 5.265625 31.488281 10.667969 46.507812 1.515624 4.226563 3.28125 8.359375 5.289062 12.375l-59.730469 51.199219-59.734375-51.199219c2.007813-4.015625 3.777344-8.148437 5.289063-12.375 5.425781-14.949219 8.980469-30.511719 10.582031-46.335937" fill="#a4c2f7"/><path d="m205.300781 384-34.132812 25.597656-85.335938-85.332031 34.132813-17.066406 25.601562 25.601562 53.246094 45.652344zm0 0" fill="#fff"/><path d="m324.765625 324.265625-85.332031 85.332031-34.132813-25.597656 6.484375-5.546875 53.246094-45.652344 25.601562-25.601562zm0 0" fill="#fff"/><path d="m271.433594 74.410156c-4.800782 1.667969-9.855469 2.476563-14.933594 2.390625-50.859375 0-135.511719-25.261719-136.535156 66.558594v1.707031c0 2.132813 0 4.179688.085937 6.226563.085938 9.644531.425781 18.859375 1.195313 27.566406v.167969l2.644531 17.066406 2.390625 15.445312v.085938l.171875 1.28125 6.570313 42.496094c3.425781 24.019531 21.25 43.472656 44.882812 48.980468 18.070312 3.753907 36.71875 3.753907 54.785156 0 23.632813-5.507812 41.457032-24.960937 44.886719-48.980468l6.570313-42.496094.339843-2.390625v-.085937l2.21875-14.335938 2.644531-17.066406v-.085938c.769532-8.703125 1.109376-17.832031 1.195313-27.648437.085937-3.070313.085937-6.226563.085937-9.46875 0-32.257813-7.167968-53.589844-19.199218-67.414063zm0 0" fill="#f3d55b"/><path d="m316.234375 76.800781c-6.53125-9.941406-15.296875-18.210937-25.601563-24.152343 3.453126-14.503907 3.453126-29.613282 0-44.117188-17.066406 25.601562-85.332031 17.066406-136.535156 17.066406-51.199218 0-59.730468 34.132813-59.730468 59.734375.847656 20.144531 3.707031 40.15625 8.53125 59.734375l.171874.511719c6.058594-2.21875 13.738282 3.070313 16.980469 5.714844.085938 9.644531.425781 18.859375 1.195313 27.566406v.167969l2.644531 17.066406c6.484375 12.460938 20.394531 34.304688 38.742187 34.304688 25.601563 0 25.601563-8.53125 42.667969-8.53125 17.066407 0 17.066407 8.53125 42.664063 8.53125 18.347656 0 32.257812-21.84375 38.742187-34.304688l2.644531-17.066406v-.085938c.769532-8.703125 1.109376-17.832031 1.195313-27.648437 3.855469-3.449219 8.683594-5.625 13.824219-6.226563h3.328125s17.066406-51.199218 8.535156-68.265625zm0 0" fill="#f3d55b"/><path d="m290.632812 141.824219c0 3.242187 0 6.398437-.085937 9.46875-.085937 9.816406-.425781 18.945312-1.195313 27.648437v.085938l-2.644531 17.066406c-6.484375 12.460938-20.394531 34.304688-38.742187 34.304688-5.652344.117187-11.296875-.457032-16.808594-1.707032-10.242188-2.472656-13.738281-6.824218-25.855469-6.824218-4.363281-.066407-8.699219.65625-12.800781 2.132812-9.300781 4.492188-19.542969 6.6875-29.867188 6.398438-3.011718-.003907-5.996093-.585938-8.789062-1.707032-13.996094-5.289062-24.578125-22.1875-29.953125-32.597656l-2.644531-17.066406v-.167969c-.769532-8.707031-1.109375-17.921875-1.195313-27.566406-.085937-2.046875-.085937-4.09375-.085937-6.226563v-1.707031c.597656-53.164063 29.183594-67.074219 63.0625-69.292969 18.855468-.605468 37.730468.078125 56.492187 2.050782 2.730469.167968 5.460938.339843 8.105469.425781 3.070312.171875 5.972656.257812 8.875.257812 5.078125.085938 10.132812-.722656 14.933594-2.390625 12.03125 13.824219 19.199218 35.15625 19.199218 67.414063zm0 0" fill="#cad9fc"/><path d="m265.03125 141.824219c0 3.242187 0 6.398437-.082031 9.46875-.085938 9.816406-.429688 18.945312-1.195313 27.648437v.085938l-2.644531 17.066406c-5.378906 10.410156-15.960937 27.308594-29.953125 32.597656-2.796875 1.121094-5.777344 1.703125-8.789062 1.707032-10.324219.289062-20.566407-1.90625-29.867188-6.398438-4.105469-1.476562-8.441406-2.199219-12.800781-2.132812-12.117188 0-15.617188 4.351562-25.855469 6.824218-13.996094-5.289062-24.578125-22.1875-29.953125-32.597656l-2.644531-17.066406v-.167969c-.769532-8.707031-1.109375-17.921875-1.195313-27.566406-.085937-2.046875-.085937-4.09375-.085937-6.226563v-1.707031c.597656-53.164063 29.183594-67.074219 63.0625-69.292969 16.894531.769532 33.621094 2.734375 47.871094 2.734375 2.886718 0 5.769531-.226562 8.621093-.683593 2.144531-.40625 4.253907-.976563 6.3125-1.707032.597657.683594 1.195313 1.449219 1.792969 2.132813 10.921875 13.910156 17.40625 34.644531 17.40625 65.28125zm0 0" fill="#e8edfc"/><path d="m290.632812 52.648438c-2.507812 9.929687-9.660156 18.035156-19.199218 21.761718-4.800782 1.667969-9.855469 2.476563-14.933594 2.390625-50.859375 0-135.511719-25.261719-136.535156 66.558594v1.707031c0 2.132813 0 4.179688.085937 6.226563-3.242187-2.644531-10.921875-7.933594-16.980469-5.714844l-.171874-.511719c-4.824219-19.578125-7.683594-39.589844-8.53125-59.734375 0-25.601562 8.53125-59.734375 59.730468-59.734375 51.203125 0 119.46875 8.535156 136.535156-17.066406 3.453126 14.503906 3.453126 29.613281 0 44.117188zm0 0" fill="#a4c2f7"/><path d="m307.699219 145.066406h-3.328125c-5.140625.601563-9.96875 2.777344-13.824219 6.226563.085937-3.070313.085937-6.226563.085937-9.46875 0-32.257813-7.167968-53.589844-19.199218-67.414063 9.539062-3.726562 16.691406-11.832031 19.199218-21.761718 10.304688 5.941406 19.070313 14.210937 25.601563 24.152343 8.53125 17.066407-8.535156 68.265625-8.535156 68.265625zm0 0" fill="#7facfa"/><path d="m286.707031 196.09375-2.21875 14.335938v.085937l-.339843 2.390625-6.570313 42.496094c-3.429687 24.019531-21.253906 43.472656-44.886719 48.980468-9.003906 1.925782-18.1875 2.867188-27.390625 2.816407-4.277343.027343-8.546875-.171875-12.800781-.597657-4.90625-.425781-9.78125-1.164062-14.59375-2.21875-23.632812-5.507812-41.457031-24.960937-44.882812-48.980468l-4.097657-26.453125-2.472656-16.042969-.171875-1.28125v-.085938l-2.390625-15.445312c5.375 10.410156 15.957031 27.308594 29.953125 32.597656 2.792969 1.121094 5.777344 1.703125 8.789062 1.707032 10.324219.289062 20.566407-1.90625 29.867188-6.398438 4.101562-1.476562 8.4375-2.199219 12.800781-2.132812 12.117188 0 15.613281 4.351562 25.855469 6.824218 5.511719 1.25 11.15625 1.824219 16.808594 1.707032 2.769531-.003907 5.511718-.492188 8.109375-1.449219 14.335937-5.035157 25.171875-22.273438 30.632812-32.855469zm0 0" fill="#7facfa"/><path d="m256.074219 228.949219-4.097657 26.453125c-3.425781 24.019531-21.253906 43.472656-44.886718 48.980468-4.808594 1.054688-9.683594 1.792969-14.589844 2.21875-4.90625-.425781-9.78125-1.164062-14.59375-2.21875-23.632812-5.507812-41.457031-24.960937-44.882812-48.980468l-4.097657-26.453125c2.597657.957031 5.339844 1.445312 8.105469 1.449219 5.652344.117187 11.296875-.457032 16.8125-1.707032 10.238281-2.472656 13.738281-6.824218 25.855469-6.824218 4.359375-.066407 8.695312.65625 12.800781 2.132812 9.300781 4.492188 19.542969 6.6875 29.867188 6.398438 3.011718-.003907 5.992187-.585938 8.789062-1.707032 5.511719 1.25 11.15625 1.824219 16.808594 1.707032 2.769531-.003907 5.511718-.492188 8.109375-1.449219zm0 0" fill="#a4c2f7"/><path d="m94.367188 170.066406c0 35.074219 22.355468 41.730469 30.890624 43.011719h1.21875l2.449219 15.871094 4.097657 26.453125c2.472656 16.242187 11.515624 30.753906 25.007812 40.128906-1.382812 6.398438-3.121094 12.71875-5.203125 18.925781l7.382813 7.382813 16.246093-1.414063c3.027344-8.101562 5.425781-16.425781 7.175781-24.894531-13.492187-9.375-22.539062-23.886719-25.011718-40.128906l-4.09375-26.453125-2.449219-15.871094h-1.222656c-8.53125-1.28125-30.890625-7.9375-30.890625-43.011719 0-16.296875 3.839844-22.78125 8.707031-24.488281l-.171875-.511719c-4.828125-19.578125-7.683594-39.589844-8.535156-59.734375 0-24.398437 7.84375-56.480469 52.90625-59.441406-6.417969-.167969-12.71875-.292969-18.773438-.292969-51.199218 0-59.730468 34.132813-59.730468 59.734375.847656 20.144531 3.707031 40.15625 8.53125 59.734375l.171874.511719c-4.863281 1.707031-8.703124 8.191406-8.703124 24.488281zm0 0" fill="#fff"/><path d="m104.226562 485.640625c-1.195312-.15625-2.398437-.304687-3.578124-.511719-.898438-.160156-1.777344-.371094-2.664063-.558594-1.382813-.296874-2.757813-.597656-4.109375-.964843-.929688-.25-1.835938-.539063-2.75-.820313-.78125-.238281-1.578125-.433594-2.347656-.699218l-.074219-.105469c-.867187-.296875-1.761719-.542969-2.613281-.871094-34.863282-13.371094-55.875-49.039063-50.675782-86.011719 5.199219-36.972656 35.238282-65.460937 72.433594-68.695312l5.261719-.460938-1.675781-1.675781 17.066406-8.535156-8.535156-8.53125-34.132813 17.066406 1.675781 1.675781-5.257812.457032c-37.199219 3.238281-67.234375 31.722656-72.4375 68.699218-5.199219 36.972656 15.816406 72.640625 50.675781 86.011719.855469.328125 1.746094.570313 2.613281.871094l.078126.105469c.765624.265624 1.566406.457031 2.34375.699218.914062.28125 1.824218.566406 2.75.816406 1.355468.367188 2.730468.671876 4.109374.964844.890626.191406 1.769532.402344 2.667969.5625 1.179688.207032 2.378907.355469 3.574219.511719 3.335938 10.597656 13.160156 17.8125 24.273438 17.824219h25.601562c-11.113281-.011719-20.9375-7.222656-24.273438-17.824219zm0 0" fill="#fff"/><path d="m126.273438 220.160156c-3.910157-.003906-7.320313-2.667968-8.265626-6.464844-2.738281-11.171874-4.5-22.558593-5.265624-34.035156-.734376-8.242187-1.132813-17.535156-1.226563-28.289062-.082031-1.890625-.082031-4.050782-.082031-6.304688v-1.707031c0-4.714844 3.820312-8.535156 8.53125-8.535156 4.714844 0 8.535156 3.820312 8.535156 8.535156v1.707031c0 2.011719 0 3.949219.074219 5.882813.101562 10.574219.476562 19.425781 1.175781 27.328125.703125 10.542968 2.3125 21.007812 4.808594 31.277344.636718 2.546874.066406 5.25-1.554688 7.324218-1.617187 2.070313-4.101562 3.28125-6.730468 3.28125zm0 0" fill="#428dff"/><path d="m284.5 219.050781c-2.617188.003907-5.089844-1.195312-6.710938-3.25-1.621093-2.050781-2.210937-4.738281-1.597656-7.28125 2.324219-9.929687 3.882813-20.027343 4.65625-30.199219.703125-7.875 1.078125-16.726562 1.167969-27.09375.085937-3.160156.085937-6.238281.085937-9.402343 0-28.375-5.59375-48.589844-17.101562-61.808594-2.066406-2.289063-2.738281-5.515625-1.753906-8.4375.984375-2.925781 3.46875-5.089844 6.5-5.664063 3.03125-.574218 6.136718.53125 8.121094 2.894532 14.332031 16.460937 21.300781 40.34375 21.300781 73.015625 0 3.320312 0 6.558593-.085938 9.703125-.09375 10.675781-.492187 19.96875-1.234375 28.257812-.847656 11.023438-2.539062 21.960938-5.058594 32.726563-.921874 3.832031-4.347656 6.53125-8.289062 6.539062zm0 0" fill="#428dff"/><path d="m125.265625 221.609375c-.425781 0-.851563-.03125-1.273437-.09375-8.949219-1.34375-38.160157-9.035156-38.160157-51.449219 0-6.363281 0-25.734375 12.757813-31.882812 7.484375-3.617188 17.019531-1.339844 26.777344 6.4375 2.472656 1.871094 3.738281 4.933594 3.304687 8.007812-.433594 3.070313-2.5 5.664063-5.398437 6.769532-2.894532 1.109374-6.167969.5625-8.539063-1.433594-4.71875-3.753906-7.917969-4.59375-8.785156-4.382813.027343 0-3.050781 2.648438-3.050781 16.484375 0 26.988282 14.800781 33.242188 23.625 34.570313 4.414062.667969 7.566406 4.621093 7.238281 9.070312-.332031 4.449219-4.035157 7.894531-8.496094 7.902344zm0 0" fill="#428dff"/><path d="m285.332031 221.609375c-4.460937-.007813-8.164062-3.453125-8.496093-7.902344-.328126-4.449219 2.824218-8.402343 7.238281-9.070312 8.824219-1.324219 23.625-7.578125 23.625-34.570313 0-13.851562-3.082031-16.492187-3.117188-16.515625-3.289062.539063-6.335937 2.078125-8.714843 4.414063-2.375 1.996094-5.644532 2.542968-8.542969 1.433594-2.894531-1.105469-4.960938-3.699219-5.398438-6.769532-.433593-3.074218.832031-6.136718 3.308594-8.007812 9.738281-7.777344 19.273437-10.054688 26.773437-6.4375 12.757813 6.148437 12.757813 25.519531 12.757813 31.882812 0 42.414063-29.207031 50.101563-38.15625 51.449219-.421875.0625-.851563.09375-1.277344.09375zm0 0" fill="#428dff"/><path d="m82.984375 334.902344c-34.289063 2.988281-61.605469 29.945312-65.054687 64.191406-.230469 2.382812-.339844 4.777344-.363282 7.175781h-17.066406c.027344-2.960937.160156-5.921875.449219-8.875 4.265625-42.414062 38.097656-75.796875 80.566406-79.496093zm0 0" fill="#fff"/><g fill="#428dff"><path d="m42.691406 340.980469c2.566406 3.636719 7.402344 4.84375 11.375 2.847656 8.902344-4.984375 18.757813-8.027344 28.917969-8.925781l-1.46875-17.003906c-12.589844 1.109374-24.800781 4.878906-35.824219 11.058593-2.109375 1.089844-3.644531 3.03125-4.21875 5.335938-.574218 2.300781-.132812 4.738281 1.21875 6.6875zm0 0"/><path d="m.5 406.269531h17.066406c.027344-2.398437.132813-4.792969.363282-7.175781.261718-2.527344.652343-5.039062 1.171874-7.527344.6875-4.394531-1.925781-8.632812-6.160156-9.992187-2.269531-.699219-4.726562-.390625-6.746094.855469-2.019531 1.242187-3.40625 3.300781-3.796874 5.640624-.644532 3.082032-1.128907 6.195313-1.449219 9.324219-.289063 2.953125-.421875 5.914063-.449219 8.875zm0 0"/><path d="m31.433594 363.933594c1.171875-1.714844 1.695312-3.789063 1.480468-5.855469l-.335937-1.554687c-.160156-.550782-.382813-1.078126-.667969-1.574219-.207031-.5-.480468-.972657-.820312-1.398438-.351563-.449219-.738282-.875-1.148438-1.273437-2.597656-2.476563-6.558594-2.835938-9.558594-.863282-3.199218 1.925782-4.925781 5.585938-4.375 9.277344.253907 1.117188.742188 2.171875 1.429688 3.089844.652344.90625 1.484375 1.671875 2.445312 2.238281 1.953126 1.078125 4.210938 1.457031 6.410157 1.078125 2.039062-.402344 3.863281-1.527344 5.140625-3.164062zm0 0"/><path d="m82.242188 334.933594c-4.570313-.015625-8.320313-3.628906-8.5-8.195313-.179688-4.570312 3.269531-8.46875 7.824218-8.84375l5.289063-.425781c2.265625-.214844 4.519531.496094 6.25 1.96875s2.792969 3.582031 2.945312 5.851562c.179688 2.253907-.542969 4.492188-2.011719 6.214844s-3.558593 2.792969-5.816406 2.972656l-5.289062.425782c-.234375.019531-.46875.03125-.691406.03125zm0 0"/><path d="m78.589844 494.164062c-.371094 0-.738282-.023437-1.109375-.070312-44.023438-5.882812-76.917969-43.40625-76.980469-87.824219 0-4.710937 3.820312-8.53125 8.53125-8.53125 4.714844 0 8.535156 3.820313 8.535156 8.53125.042969 35.851563 26.585938 66.144531 62.117188 70.902344 4.460937.578125 7.707031 4.519531 7.417968 9.007813-.289062 4.488281-4.011718 7.984374-8.511718 7.988281zm0 0"/><path d="m332.007812 494.164062c-4.5-.003906-8.222656-3.496093-8.511718-7.984374-.285156-4.492188 2.960937-8.433594 7.421875-9.011719 36.191406-4.828125 62.949219-36.121094 62.097656-72.621094-.851563-36.503906-29.039063-66.515625-65.417969-69.648437l-5.222656-.421876c-3.082031-.1875-5.824219-2.023437-7.167969-4.804687s-1.082031-6.070313.6875-8.601563c1.773438-2.53125 4.773438-3.910156 7.84375-3.601562l5.292969.425781c45.066406 3.867188 79.996094 41.046875 81.042969 86.269531 1.050781 45.222657-32.121094 83.980469-76.960938 89.929688-.367187.050781-.734375.070312-1.105469.070312zm0 0"/><path d="m307.699219 512h-204.800781c-18.84375-.019531-34.113282-15.292969-34.132813-34.132812v-51.203126c0-4.710937 3.820313-8.53125 8.535156-8.53125 4.710938 0 8.53125 3.820313 8.53125 8.53125v51.203126c.011719 9.417968 7.644531 17.054687 17.066407 17.066406h204.800781c9.421875-.011719 17.054687-7.648438 17.066406-17.066406v-51.203126c0-4.710937 3.820313-8.53125 8.535156-8.53125 4.710938 0 8.53125 3.820313 8.53125 8.53125v51.203126c-.019531 18.839843-15.289062 34.113281-34.132812 34.132812zm0 0"/><path d="m205.300781 392.53125c-2.035156.003906-4.003906-.726562-5.546875-2.054688l-59.734375-51.199218c-2.996093-2.566406-3.84375-6.847656-2.046875-10.363282 1.859375-3.707031 3.488282-7.523437 4.882813-11.425781 2.867187-7.6875 5.152343-15.578125 6.832031-23.605469 1.03125-4.5625 5.546875-7.445312 10.121094-6.460937 4.570312.984375 7.5 5.46875 6.5625 10.050781-1.851563 8.84375-4.371094 17.53125-7.53125 25.992188-.933594 2.554687-1.859375 4.886718-2.792969 7.070312l49.253906 42.226563 49.257813-42.226563c-.9375-2.199218-1.878906-4.566406-2.824219-7.175781-3.140625-8.429687-5.648437-17.082031-7.5-25.886719-.9375-4.582031 1.988281-9.066406 6.5625-10.050781s9.085937 1.898437 10.121094 6.460937c1.679687 8 3.957031 15.863282 6.804687 23.523438 1.398438 3.933594 3.039063 7.777344 4.910156 11.507812 1.792969 3.515626.949219 7.796876-2.046874 10.363282l-59.734376 51.199218c-1.542968 1.328126-3.515624 2.058594-5.550781 2.054688zm0 0"/><path d="m102.890625 153.597656c-3.910156 0-7.320313-2.664062-8.265625-6.460937-5.019531-20.25-7.964844-40.957031-8.792969-61.804688 0-44.019531 24.242188-68.265625 68.265625-68.265625 10.191406 0 21.050782.332032 32.058594.675782 38.410156 1.175781 86.308594 2.660156 97.375-13.945313 1.875-2.808594 5.230469-4.246094 8.558594-3.671875 3.324218.578125 6 3.058594 6.820312 6.335938.417969 1.667968 9.984375 41.007812-7.667968 63.609374-8.445313 10.382813-21.375 16.0625-34.734376 15.261719h-.007812c-8.984375 0-18.6875-.738281-28.976562-1.519531-30.199219-2.304688-64.414063-4.90625-83.042969 12.351562-10.746094 9.972657-15.980469 25.96875-15.980469 48.902344.019531 3.046875-1.585938 5.875-4.214844 7.417969s-5.882812 1.566406-8.535156.0625c-2.648438-1.507813-4.296875-4.3125-4.316406-7.359375-.054688 3.871094-2.710938 7.21875-6.46875 8.15625-.675782.167969-1.375.253906-2.074219.253906zm51.207031-119.464844c-34.933594 0-51.199218 16.269532-51.199218 51.199219.863281 19.449219 3.632812 38.761719 8.277343 57.667969.164063.621094.25 1.261719.257813 1.90625.023437-27.867188 7.039062-47.902344 21.449218-61.257812 24.082032-22.320313 62.261719-19.414063 95.933594-16.855469 9.949219.753906 19.347656 1.472656 27.683594 1.472656h.007812c8.082032.707031 16.007813-2.53125 21.28125-8.695313 6.175782-10.425781 8.5625-22.664062 6.761719-34.644531-22.292969 12.238281-61.109375 11.03125-98.925781 9.871094-10.816406-.332031-21.5-.664063-31.527344-.664063zm0 0"/><path d="m307.699219 153.597656c-2.742188.003906-5.320313-1.316406-6.925781-3.539062-1.601563-2.226563-2.039063-5.085938-1.175782-7.6875 6.625-19.882813 13.785156-52.183594 9.003906-61.753906-5.84375-8.597657-13.59375-15.726563-22.644531-20.832032-3.859375-2.613281-4.90625-7.839844-2.351562-11.738281 2.554687-3.902344 7.765625-5.027344 11.703125-2.535156 11.664062 6.628906 21.484375 16.074219 28.558594 27.476562 9.625 19.25-5.035157 65.667969-8.078126 74.78125-1.160156 3.480469-4.417968 5.828125-8.089843 5.828125zm0 0"/><path d="m171.167969 418.132812c-2.265625 0-4.4375-.898437-6.035157-2.5l-85.332031-85.335937c-1.941406-1.9375-2.828125-4.691406-2.390625-7.398437.441406-2.707032 2.15625-5.039063 4.609375-6.265626l34.132813-17.066406c3.285156-1.636718 7.25-.992187 9.847656 1.597656l25.601562 25.601563c3.234376 3.347656 3.1875 8.671875-.105468 11.960937-3.289063 3.292969-8.613282 3.339844-11.960938.105469l-21.246094-21.25-18.042968 9.023438 71.71875 71.730469 28.214844-21.164063c2.4375-1.828125 5.667968-2.21875 8.472656-1.019531 2.804687 1.195312 4.753906 3.800781 5.121094 6.824218.363281 3.027344-.914063 6.019532-3.355469 7.847657l-34.132813 25.601562c-1.476562 1.109375-3.273437 1.710938-5.117187 1.707031zm0 0"/><path d="m239.433594 418.132812c-1.847656.003907-3.644532-.597656-5.121094-1.707031l-34.132812-25.601562c-2.4375-1.828125-3.71875-4.820313-3.351563-7.847657.363281-3.023437 2.316406-5.628906 5.121094-6.824218 2.800781-1.199219 6.03125-.808594 8.46875 1.019531l28.214843 21.164063 71.726563-71.730469-18.042969-9.019531-21.246094 21.246093c-3.351562 3.234375-8.671874 3.1875-11.964843-.101562-3.289063-3.292969-3.335938-8.617188-.101563-11.964844l25.597656-25.597656c2.597657-2.597657 6.566407-3.242188 9.851563-1.601563l34.132813 17.066406c2.453124 1.226563 4.167968 3.558594 4.605468 6.265626.441406 2.707031-.449218 5.460937-2.386718 7.402343l-85.332032 85.332031c-1.601562 1.601563-3.773437 2.503907-6.039062 2.5zm0 0"/><path d="m205.300781 512c-4.714843 0-8.535156-3.820312-8.535156-8.535156v-119.464844c0-4.714844 3.820313-8.535156 8.535156-8.535156 4.710938 0 8.53125 3.820312 8.53125 8.535156v119.464844c0 4.714844-3.820312 8.535156-8.53125 8.535156zm0 0"/><path d="m205.300781 315.730469c-9.824219.050781-19.621093-.960938-29.226562-3.015625-27.027344-6.34375-47.4375-28.554688-51.484375-56.019532l-6.765625-43.972656-.035157-.253906-4.972656-32.132812c-.503906-3.089844.71875-6.207032 3.191406-8.125 2.472657-1.917969 5.792969-2.332032 8.660157-1.082032 2.867187 1.253906 4.820312 3.976563 5.089843 7.09375l4.957032 32.015625c.035156.207031.058594.421875.078125.628907l.113281.9375 6.550781 42.292968c2.953125 20.511719 18.128907 37.140625 38.285157 41.949219 16.859374 3.476563 34.253906 3.476563 51.113281 0 20.152343-4.808594 35.328125-21.429687 38.285156-41.9375l6.859375-44.488281c.015625-.167969.03125-.339844.054688-.492188l4.835937-31.269531c.574219-4.460937 4.515625-7.710937 9.003906-7.425781 4.492188.289062 7.988281 4.011718 7.992188 8.507812v.085938c0 .4375-.035157.875-.101563 1.304687l-4.808594 31.054688c-.007812.117187-.015624.230469-.03125.339843l-.34375 2.390626-6.59375 42.589843c-4.050781 27.460938-24.460937 49.664063-51.484374 56.007813-9.605469 2.054687-19.402344 3.066406-29.222657 3.015625zm0 0"/><path d="m247.964844 238.933594c-10.074219.363281-20.101563-1.53125-29.347656-5.546875-8.433594-3.984375-18.203126-3.984375-26.632813 0-9.246094 4.015625-19.277344 5.910156-29.351563 5.546875-21.550781 0-37.074218-21.15625-46.308593-38.902344-1.511719-2.710938-1.425781-6.03125.21875-8.667969 1.644531-2.632812 4.589843-4.167969 7.691406-4 3.101563.164063 5.867187 2 7.222656 4.792969 4.652344 8.929688 16.992188 29.710938 31.175781 29.710938 7.863282.363281 15.703126-1.101563 22.898438-4.28125 12.570312-5.671876 26.96875-5.671876 39.535156 0 7.199219 3.179687 15.039063 4.644531 22.898438 4.28125 14.183594 0 26.527344-20.78125 31.175781-29.710938 1.355469-2.792969 4.121094-4.628906 7.222656-4.792969 3.101563-.167969 6.050781 1.367188 7.695313 4 1.644531 2.636719 1.726562 5.957031.214844 8.667969-9.234376 17.746094-24.757813 38.902344-46.308594 38.902344zm0 0"/></g></svg>